# This file uses centimeters as units for non-parametric coordinates.

mtllib SM_FireAlarm.mtl
g default
v -5.364041 12.732494 2.428509
v 5.364041 12.732494 2.428509
v 5.364041 16.388349 2.428509
v -5.364041 16.388349 2.428509
v -5.364041 12.732494 0.178522
v 5.364041 12.732494 0.178522
v 5.364041 16.388349 0.178522
v -5.364041 16.388349 0.178522
v -0.044542 19.143317 1.987372
v -0.765841 19.667370 1.987372
v -1.657416 19.667370 1.987372
v -2.378714 19.143315 1.987372
v -2.654226 18.295379 1.987372
v -2.378714 17.447440 1.987372
v -1.657416 16.923388 1.987372
v -0.765841 16.923388 1.987372
v -0.044543 17.447442 1.987372
v 0.230969 18.295379 1.987372
v -1.211628 18.295379 3.209139
v -0.044542 19.143317 2.964810
v -0.252381 18.992314 3.209139
v -0.765841 19.667370 2.964810
v -0.845228 19.423042 3.209139
v -1.657416 19.667370 2.964810
v -1.578028 19.423042 3.209139
v -2.378714 19.143315 2.964810
v -2.170876 18.992313 3.209139
v -2.654226 18.295379 2.964810
v -2.397324 18.295379 3.209139
v -2.378714 17.447440 2.964810
v -2.170876 17.598443 3.209139
v -1.657416 16.923388 2.964810
v -1.578028 17.167715 3.209139
v -0.765841 16.923388 2.964810
v -0.845228 17.167715 3.209139
v -0.044543 17.447442 2.964810
v -0.252381 17.598444 3.209139
v 0.230969 18.295379 2.964810
v -0.025933 18.295379 3.209139
v -7.389838 0.521867 1.906643
v -6.867971 0.000000 1.906643
v -6.867971 0.521867 2.428509
v 6.867971 0.000000 1.906643
v 7.389838 0.521867 1.906643
v 6.867971 0.521867 2.428509
v -6.867971 20.201081 1.906642
v -7.389838 19.679215 1.906643
v -6.867971 19.679215 2.428509
v 7.389838 19.679215 1.906643
v 6.867971 20.201081 1.906643
v 6.867971 19.679215 2.428509
v -7.389838 19.679211 -2.268815
v -6.867971 20.201077 -2.268815
v 6.867971 20.201077 -2.268815
v 7.389838 19.679211 -2.268815
v -7.389838 0.521867 -2.268815
v -6.867971 0.000000 -2.268815
v 6.867971 0.000000 -2.268815
v 7.389838 0.521867 -2.268815
vt 0.843738 0.375158
vt 0.844992 0.520847
vt 0.845419 0.570495
vt 0.843311 0.325511
vt 0.813183 0.375421
vt 0.814436 0.521110
vt 0.814864 0.570758
vt 0.812756 0.325774
vt 0.901615 0.949227
vt 0.870685 0.942119
vt 0.870688 0.876525
vt 0.901618 0.869420
vt 0.870722 0.158262
vt 0.901652 0.151157
vt 0.901648 0.230964
vt 0.870719 0.223856
vt 0.870719 0.238069
vt 0.901645 0.310771
vt 0.870716 0.303663
vt 0.870715 0.317876
vt 0.901641 0.390578
vt 0.870712 0.383470
vt 0.870711 0.397683
vt 0.901637 0.470385
vt 0.870708 0.463277
vt 0.870707 0.477490
vt 0.901633 0.550192
vt 0.870704 0.543084
vt 0.870704 0.557297
vt 0.901630 0.629999
vt 0.870700 0.622891
vt 0.870700 0.637104
vt 0.901626 0.709806
vt 0.870697 0.702698
vt 0.870696 0.716910
vt 0.901622 0.789613
vt 0.870693 0.782505
vt 0.870692 0.796717
vt 0.870689 0.862312
vt 0.989145 0.151161
vt 0.989141 0.230968
vt 0.989137 0.310775
vt 0.989134 0.390582
vt 0.989130 0.470389
vt 0.989126 0.550196
vt 0.989122 0.630003
vt 0.989119 0.709810
vt 0.989115 0.789617
vt 0.989111 0.869424
vt 0.989107 0.949231
vt 0.818283 0.277868
vt 0.735290 0.337438
vt 0.685119 0.179941
vt 0.633134 0.336849
vt 0.550834 0.276326
vt 0.519826 0.178988
vt 0.551955 0.082013
vt 0.634947 0.022444
vt 0.737103 0.023033
vt 0.819403 0.083555
vt 0.850411 0.180894
vt 0.763536 0.375848
vt 0.764789 0.521538
vt 0.846673 0.716184
vt 0.816117 0.716447
vt 0.133132 0.031349
vt 0.145611 0.031350
vt 0.137122 0.886453
vt 0.137121 0.816042
vt 0.145922 0.886453
vt 0.377554 0.895250
vt 0.377553 0.886450
vt 0.386353 0.816038
vt 0.390348 0.031367
vt 0.390325 0.355294
vt 0.377846 0.355293
vt 0.145480 0.670250
vt 0.130545 0.742350
vt 0.390747 0.671034
vt 0.143204 0.742764
vt 0.381791 0.744031
vt 0.377552 0.816038
vt 0.378535 0.673425
vt 0.145921 0.816042
vt 0.460950 0.031372
vt 0.460927 0.355299
vt 0.062530 0.031344
vt 0.133109 0.355276
vt 0.062507 0.355271
vt 0.377869 0.031366
vt 0.171026 0.237818
vt 0.768007 0.590358
vt 0.352425 0.237831
vt 0.145588 0.355276
vt 0.352420 0.299647
vt 0.098303 0.410195
vt 0.145923 0.895254
vt 0.386354 0.886449
vt 0.132817 0.669883
vt 0.394506 0.742695
vt 0.139485 0.659101
vt 0.146006 0.657524
vt 0.015966 0.590371
vt 0.171022 0.299634
vt 0.380099 0.660959
vt 0.685664 0.410185
vn 0.000000 0.000000 1.000000
vn 0.000000 0.000000 1.000000
vn 0.000000 0.000000 1.000000
vn 0.000000 0.000000 1.000000
vn 0.000000 1.000000 0.000000
vn 0.000000 1.000000 0.000000
vn 0.000000 1.000000 0.000000
vn 0.000000 1.000000 0.000000
vn -1.000000 0.000000 0.000000
vn -1.000000 0.000000 0.000000
vn -1.000000 0.000000 0.000000
vn -1.000000 0.000000 0.000000
vn 0.000000 -1.000000 0.000000
vn 0.000000 -1.000000 0.000000
vn 0.000000 -1.000000 0.000000
vn 0.000000 -1.000000 0.000000
vn 1.000000 0.000000 0.000000
vn 1.000000 0.000000 0.000000
vn 1.000000 0.000000 0.000000
vn 1.000000 0.000000 0.000000
vn 0.557536 0.405073 0.724616
vn 0.557536 0.405074 0.724616
vn 0.689152 0.000000 0.724617
vn 0.689152 0.000000 0.724617
vn 0.212960 0.655423 0.724617
vn 0.212959 0.655423 0.724617
vn -0.212961 0.655425 0.724615
vn -0.212961 0.655425 0.724614
vn -0.557538 0.405075 0.724615
vn -0.557537 0.405075 0.724615
vn -0.689152 -0.000000 0.724616
vn -0.689152 0.000000 0.724616
vn -0.557537 -0.405074 0.724616
vn -0.557536 -0.405075 0.724616
vn -0.212960 -0.655423 0.724616
vn -0.212959 -0.655423 0.724616
vn 0.212960 -0.655423 0.724616
vn 0.212960 -0.655423 0.724616
vn 0.557536 -0.405073 0.724616
vn 0.557536 -0.405074 0.724616
vn 0.587784 0.809018 0.000000
vn 0.587784 0.809018 0.000000
vn 0.587784 0.809018 0.000000
vn 0.587784 0.809018 0.000000
vn 0.000000 1.000000 0.000000
vn 0.000000 1.000000 0.000000
vn 0.000000 1.000000 0.000000
vn 0.000000 1.000000 0.000000
vn -0.587785 0.809017 0.000000
vn -0.587785 0.809017 0.000000
vn -0.587785 0.809017 0.000000
vn -0.587785 0.809017 0.000000
vn -0.951056 0.309017 0.000000
vn -0.951056 0.309017 0.000000
vn -0.951056 0.309017 0.000000
vn -0.951056 0.309017 0.000000
vn -0.951057 -0.309017 0.000000
vn -0.951057 -0.309017 0.000000
vn -0.951057 -0.309017 0.000000
vn -0.951057 -0.309017 0.000000
vn -0.587784 -0.809018 0.000000
vn -0.587784 -0.809018 0.000000
vn -0.587784 -0.809018 0.000000
vn -0.587784 -0.809018 0.000000
vn 0.000000 -1.000000 0.000000
vn 0.000000 -1.000000 0.000000
vn 0.000000 -1.000000 0.000000
vn 0.000000 -1.000000 0.000000
vn 0.587785 -0.809017 0.000000
vn 0.587785 -0.809017 0.000000
vn 0.587785 -0.809017 0.000000
vn 0.587785 -0.809017 0.000000
vn 0.951056 -0.309017 0.000000
vn 0.951056 -0.309017 0.000000
vn 0.951056 -0.309017 0.000000
vn 0.951056 -0.309017 0.000000
vn 0.951057 0.309017 0.000000
vn 0.951057 0.309017 0.000000
vn 0.951057 0.309017 0.000000
vn 0.951057 0.309017 0.000000
vn -0.000000 0.000000 1.000000
vn -0.000000 0.000000 1.000000
vn 0.000000 0.000000 1.000000
vn 0.000000 0.000000 1.000000
vn 0.000000 0.000000 1.000000
vn 0.000000 0.000000 1.000000
vn 0.000000 0.000000 1.000000
vn 0.000000 0.000000 1.000000
vn 0.000000 0.000000 1.000000
vn 0.000000 0.000000 1.000000
vn 0.000000 0.000000 1.000000
vn -0.707107 0.000000 0.707107
vn -0.707107 0.000000 0.707107
vn -0.707107 0.000000 0.707107
vn -0.707107 0.000000 0.707107
vn -0.707107 -0.707107 0.000000
vn -0.707107 -0.707107 0.000000
vn -0.707107 -0.707107 0.000000
vn -0.707107 -0.707107 0.000000
vn 0.000000 -0.707107 0.707107
vn 0.000000 -0.707107 0.707107
vn 0.000000 -0.707107 0.707107
vn 0.000000 -0.707107 0.707107
vn 0.707107 -0.707107 0.000000
vn 0.707107 -0.707107 0.000000
vn 0.707107 -0.707107 0.000000
vn 0.707107 -0.707107 0.000000
vn 0.707107 0.000000 0.707107
vn 0.707107 0.000000 0.707107
vn 0.707107 0.000000 0.707107
vn 0.707107 0.000000 0.707107
vn -0.000000 0.707107 0.707106
vn -0.000000 0.707107 0.707106
vn -0.000000 0.707107 0.707106
vn -0.000000 0.707107 0.707106
vn -0.707107 0.707107 -0.000001
vn -0.707107 0.707107 -0.000001
vn -0.707107 0.707107 -0.000001
vn -0.707107 0.707107 -0.000001
vn 0.707107 0.707107 -0.000001
vn 0.707107 0.707107 -0.000001
vn 0.707107 0.707107 -0.000001
vn 0.707107 0.707107 -0.000001
vn 0.000000 1.000000 -0.000001
vn 0.000000 1.000000 -0.000001
vn 0.000000 1.000000 -0.000001
vn 0.000000 1.000000 -0.000001
vn 0.000000 -1.000000 0.000000
vn 0.000000 -1.000000 0.000000
vn 0.000000 -1.000000 0.000000
vn 0.000000 -1.000000 0.000000
vn 1.000000 0.000000 0.000000
vn 1.000000 0.000000 0.000000
vn 1.000000 0.000000 0.000000
vn 1.000000 0.000000 0.000000
vn -1.000000 0.000000 0.000000
vn -1.000000 0.000000 0.000000
vn -1.000000 0.000000 0.000000
vn -1.000000 0.000000 0.000000
vn 0.000000 -0.000000 1.000000
vn 0.000000 -0.000000 1.000000
vn 0.000000 -0.000000 1.000000
vn 0.000000 -0.000000 1.000000
vn 0.000000 0.000000 1.000000
vn 0.000000 0.000000 1.000000
vn 0.000000 0.000000 1.000000
vn 0.000000 0.000000 1.000000
vn -0.577350 -0.577350 0.577350
vn -0.577350 -0.577350 0.577350
vn -0.577350 -0.577350 0.577350
vn 0.577350 -0.577350 0.577350
vn 0.577350 -0.577350 0.577350
vn 0.577350 -0.577350 0.577350
vn -0.577349 0.577352 0.577350
vn -0.577349 0.577352 0.577350
vn -0.577349 0.577352 0.577350
vn 0.577350 0.577350 0.577350
vn 0.577350 0.577350 0.577350
vn 0.577350 0.577350 0.577350
s off
g SM_FireAlarm
usemtl initialShadingGroup
f 5/5/1 6/6/2 7/63/3 8/62/4
f 1/1/5 2/2/6 6/6/7 5/5/8
f 2/2/9 3/3/10 7/7/11 6/6/12
f 3/3/13 4/64/14 8/65/15 7/7/16
f 4/4/17 1/1/18 5/5/19 8/8/20
s 1
f 20/9/21 21/10/22 39/11/23 38/12/24
f 21/13/22 20/14/21 22/15/25 23/16/26
f 23/17/26 22/15/25 24/18/27 25/19/28
f 25/20/28 24/18/27 26/21/29 27/22/30
f 27/23/30 26/21/29 28/24/31 29/25/32
f 29/26/32 28/24/31 30/27/33 31/28/34
f 31/29/34 30/27/33 32/30/35 33/31/36
f 33/32/36 32/30/35 34/33/37 35/34/38
f 35/35/38 34/33/37 36/36/39 37/37/40
f 37/38/40 36/36/39 38/12/24 39/39/23
s off
f 9/40/41 10/41/42 22/15/43 20/14/44
f 10/41/45 11/42/46 24/18/47 22/15/48
f 11/42/49 12/43/50 26/21/51 24/18/52
f 12/43/53 13/44/54 28/24/55 26/21/56
f 13/44/57 14/45/58 30/27/59 28/24/60
f 14/45/61 15/46/62 32/30/63 30/27/64
f 15/46/65 16/47/66 34/33/67 32/30/68
f 16/47/69 17/48/70 36/36/71 34/33/72
f 17/48/73 18/49/74 38/12/75 36/36/76
f 18/49/77 9/50/78 20/9/79 38/12/80
s 2
f 21/51/81 23/52/82 19/53/83
f 23/52/82 25/54/84 19/53/83
f 25/54/84 27/55/85 19/53/83
f 27/55/85 29/56/86 19/53/83
f 29/56/86 31/57/87 19/53/83
f 31/57/87 33/58/88 19/53/83
f 33/58/88 35/59/89 19/53/83
f 35/59/89 37/60/90 19/53/83
f 37/60/90 39/61/91 19/53/83
f 39/61/91 21/51/81 19/53/83
s off
f 40/66/92 42/67/93 48/94/94 47/88/95
f 41/70/96 40/68/97 56/69/98 57/84/99
f 42/97/100 41/70/101 43/72/102 45/71/103
f 44/98/104 43/72/105 58/82/106 59/73/107
f 45/90/108 44/74/109 49/75/110 51/76/111
f 46/77/112 48/102/113 51/105/114 50/83/115
f 47/99/116 46/77/117 53/80/118 52/78/119
f 50/83/120 49/79/121 55/100/122 54/81/123
f 46/77/124 50/83/125 54/81/126 53/80/127
f 57/84/128 58/82/129 43/72/130 41/70/131
f 44/74/132 59/85/133 55/86/134 49/75/135
f 56/87/136 40/66/137 47/88/138 52/89/139
s 3
f 42/67/140 45/90/141 2/93/142 1/91/143
f 45/90/141 51/76/144 3/95/145 2/93/142
f 51/92/144 48/103/146 4/96/147 3/106/145
f 48/94/146 42/67/140 1/91/143 4/104/147
s off
f 40/68/148 41/70/149 42/97/150
f 43/72/151 44/98/152 45/71/153
f 46/77/154 47/99/155 48/101/156
f 49/79/157 50/83/158 51/105/159
